<?xml version="1.0" standalone="no"?>
<!DOCTYPE svg PUBLIC "-//W3C//DTD SVG 20010904//EN"
 "http://www.w3.org/TR/2001/REC-SVG-20010904/DTD/svg10.dtd">
<svg version="1.0" xmlns="http://www.w3.org/2000/svg"
 width="48.000000pt" height="48.000000pt" viewBox="0 0 48.000000 48.000000"
 preserveAspectRatio="xMidYMid meet">
<metadata>
Created by potrace 1.16, written by Peter Selinger 2001-2019
</metadata>
<g transform="translate(0.000000,48.000000) scale(0.100000,-0.100000)"
fill="#dad8b3" stroke="none">
<path d="M152 327 c-83 -83 -112 -119 -112 -137 0 -18 19 -44 63 -88 l63 -62
137 0 c130 0 137 1 137 20 0 19 -7 20 -92 20 l-93 0 93 93 c67 67 92 99 92
117 0 35 -116 150 -150 150 -19 0 -55 -29 -138 -113z m88 -92 l44 -45 -49 -50
-49 -50 -48 47 -48 47 47 48 c26 26 50 48 53 48 3 0 26 -20 50 -45z"/>
</g>
</svg>
