<svg width="24" height="10" color='#dad8b3' viewBox="0 0 24 10" fill="#dad8b3" xmlns="http://www.w3.org/2000/svg">
    <path
        d="M7.18359 1.89258H4.57031V9H2.8125V1.89258H0.234375V0.46875H7.18359V1.89258ZM11.2559 4.24805C11.0254 4.2168 10.8223 4.20117 10.6465 4.20117C10.0059 4.20117 9.58594 4.41797 9.38672 4.85156V9H7.69336V2.66016H9.29297L9.33984 3.41602C9.67969 2.83398 10.1504 2.54297 10.752 2.54297C10.9395 2.54297 11.1152 2.56836 11.2793 2.61914L11.2559 4.24805ZM15.5742 9C15.4961 8.84766 15.4395 8.6582 15.4043 8.43164C14.9941 8.88867 14.4609 9.11719 13.8047 9.11719C13.1836 9.11719 12.668 8.9375 12.2578 8.57812C11.8516 8.21875 11.6484 7.76562 11.6484 7.21875C11.6484 6.54688 11.8965 6.03125 12.3926 5.67188C12.8926 5.3125 13.6133 5.13086 14.5547 5.12695H15.334V4.76367C15.334 4.4707 15.2578 4.23633 15.1055 4.06055C14.957 3.88477 14.7207 3.79688 14.3965 3.79688C14.1113 3.79688 13.8867 3.86523 13.7227 4.00195C13.5625 4.13867 13.4824 4.32617 13.4824 4.56445H11.7891C11.7891 4.19727 11.9023 3.85742 12.1289 3.54492C12.3555 3.23242 12.6758 2.98828 13.0898 2.8125C13.5039 2.63281 13.9688 2.54297 14.4844 2.54297C15.2656 2.54297 15.8848 2.74023 16.3418 3.13477C16.8027 3.52539 17.0332 4.07617 17.0332 4.78711V7.53516C17.0371 8.13672 17.1211 8.5918 17.2852 8.90039V9H15.5742ZM14.1738 7.82227C14.4238 7.82227 14.6543 7.76758 14.8652 7.6582C15.0762 7.54492 15.2324 7.39453 15.334 7.20703V6.11719H14.7012C13.8535 6.11719 13.4023 6.41016 13.3477 6.99609L13.3418 7.0957C13.3418 7.30664 13.416 7.48047 13.5645 7.61719C13.7129 7.75391 13.916 7.82227 14.1738 7.82227ZM20.1211 9H18.4219V2.66016H20.1211V9ZM18.3223 1.01953C18.3223 0.765625 18.4062 0.556641 18.5742 0.392578C18.7461 0.228516 18.9785 0.146484 19.2715 0.146484C19.5605 0.146484 19.791 0.228516 19.9629 0.392578C20.1348 0.556641 20.2207 0.765625 20.2207 1.01953C20.2207 1.27734 20.1328 1.48828 19.957 1.65234C19.7852 1.81641 19.5566 1.89844 19.2715 1.89844C18.9863 1.89844 18.7559 1.81641 18.5801 1.65234C18.4082 1.48828 18.3223 1.27734 18.3223 1.01953ZM23.3086 9H21.6094V0H23.3086V9Z"
        fill="#dad8b3"/>
</svg>